<svg width="270" height="140" viewBox="0 0 270 140" fill="none" xmlns="http://www.w3.org/2000/svg">
<path fill-rule="evenodd" clip-rule="evenodd" d="M195.636 85.1515H195.993C196.212 85.1515 196.37 85.1922 196.47 85.2923C196.51 85.3124 196.53 85.3331 196.549 85.3524C196.708 85.4932 196.887 85.7757 197.106 86.1582L197.444 86.7616H198.159L197.723 86.0173C197.503 85.6749 197.305 85.4132 197.166 85.2723C197.074 85.1852 196.966 85.1169 196.848 85.0714C197.166 85.0514 197.424 84.9306 197.623 84.7289C197.821 84.5273 197.922 84.2864 197.922 84.004C197.922 83.8031 197.861 83.6215 197.742 83.4606C197.631 83.2859 197.462 83.1573 197.266 83.0981C197.107 83.038 196.869 82.9973 196.55 82.9973C196.491 82.9973 196.411 82.9773 196.332 82.9773H195.041V86.7609H195.636L195.636 85.1515ZM195.636 83.5006H196.549C196.729 83.5214 196.847 83.5414 196.927 83.5614C197.035 83.5925 197.127 83.6644 197.184 83.7623C197.244 83.8424 197.264 83.9439 197.264 84.0647C197.266 84.1411 197.251 84.217 197.22 84.2866C197.189 84.3563 197.143 84.4178 197.085 84.4666C196.985 84.5674 196.806 84.6074 196.549 84.6281H195.635V83.5006H195.636ZM106.439 83.9239H111.802L106.439 74.8667L101.91 67.2394L82.6644 78.9527L85.6037 83.9239H106.439ZM156.33 83.9239H182.528L166.221 56.3912L148.187 26L140.759 30.5286L128.961 37.7133L140.759 57.6188L156.33 83.9239ZM147.175 93.0011C145.327 91.7943 143.162 91.0893 140.818 91.0893H140.759C134.285 91.1293 129.021 96.483 129.021 103.044C129.021 109.606 134.285 114.959 140.759 115H140.818C143.162 115 145.327 114.296 147.175 113.088V114.336H152.596V83.9246H147.175V93.0011ZM147.175 104.293C146.599 107.312 143.957 109.626 140.818 109.626H140.759C137.203 109.586 134.324 106.647 134.324 103.044C134.324 99.4423 137.203 96.5038 140.759 96.483H140.818C143.957 96.483 146.599 98.7781 147.175 101.797V104.293ZM172.637 93.0011C170.747 91.7513 168.538 91.0869 166.281 91.0893H166.221C159.746 91.1293 154.484 96.483 154.484 103.044C154.484 109.606 159.746 114.959 166.221 115H166.281C168.625 115 170.81 114.296 172.637 113.088V114.336H178.06V91.6927H172.637V93.0011ZM172.637 104.293C172.061 107.312 169.419 109.626 166.281 109.626H166.221C162.667 109.586 159.787 106.647 159.787 103.044C159.787 99.4423 162.667 96.5038 166.221 96.483H166.281C169.419 96.483 172.06 98.7781 172.637 101.797V104.293ZM197.345 101.555C197.146 101.453 196.868 101.353 196.549 101.233C195.338 100.81 193.372 100.287 190.631 99.6832C188.227 99.1391 187.016 98.4356 187.016 97.5498C187.016 96.9256 187.234 96.4223 187.651 96.0605C188.208 95.5772 189.2 95.3355 190.631 95.3355C192.08 95.3355 193.133 95.658 193.749 96.2814C194.127 96.6639 194.404 97.3474 194.583 98.3141H200.343C200.343 95.4563 199.191 93.4037 196.927 92.156C196.808 92.0771 196.681 92.0098 196.549 91.9551C194.98 91.2101 192.895 90.8276 190.293 90.8276C187.135 90.8276 184.752 91.6734 183.164 93.3836C181.893 94.7521 181.277 96.4223 181.277 98.3949C181.277 100.851 182.468 102.622 184.892 103.769C185.805 104.212 188.029 104.836 191.565 105.601C193.929 106.124 195.119 106.869 195.119 107.815C195.119 108.379 194.882 108.862 194.366 109.305C193.71 109.868 192.716 110.15 191.386 110.15C189.618 110.15 188.367 109.849 187.633 109.265C186.897 108.702 186.519 107.877 186.519 106.83H180.482C180.482 109.608 181.634 111.68 183.957 113.048C185.805 114.115 188.228 114.659 191.228 114.659C193.233 114.659 195.02 114.316 196.55 113.653C196.868 113.512 197.147 113.371 197.445 113.21C199.808 111.882 201 109.769 201 106.871C200.999 104.494 199.786 102.722 197.345 101.555ZM87.1531 93.0011C85.2546 91.7537 83.0404 91.0897 80.7778 91.0893H80.7178C74.2634 91.1293 69 96.483 69 103.044C69 109.606 74.2634 114.959 80.7178 115H80.7778C83.1216 115 85.306 114.296 87.1531 113.088V114.336H92.5753V91.6927H87.1531V93.0011ZM87.1531 104.293C86.5774 107.312 83.9351 109.626 80.7778 109.626H80.7178C77.183 109.586 74.3029 106.647 74.3029 103.044C74.3029 99.4423 77.183 96.5038 80.7178 96.483H80.7778C83.9358 96.483 86.5774 98.7781 87.1531 101.797V104.293ZM120.997 89.2983H126.896V84.0447H120.997V89.2983ZM120.997 114.335H126.896V91.0893H120.997V114.335ZM112.874 93.0011C110.975 91.7536 108.761 91.0897 106.498 91.0893H106.439C99.9638 91.1293 94.7004 96.483 94.7004 103.044C94.7004 109.606 99.9631 114.959 106.439 115H106.498C108.761 115 110.975 114.336 112.874 113.088V114.336H118.296V83.9246H112.874V93.0011ZM112.874 104.293C112.298 107.312 109.656 109.626 106.498 109.626H106.439C102.883 109.586 100.003 106.647 100.003 103.044C100.003 99.4423 102.883 96.5038 106.439 96.483H106.498C109.656 96.483 112.298 98.7781 112.874 101.797V104.293ZM147.154 83.9239L140.759 73.0964L125.049 46.6097L106.439 57.9612L105.803 58.343L106.439 59.4098L120.976 83.9239H147.154Z" fill="#464646"/>
</svg>
