<svg width="28" height="20" viewBox="0 0 28 20" fill="none" xmlns="http://www.w3.org/2000/svg">
<path d="M24.1005 19H3.90049C3.65443 18.9988 3.41721 18.9081 3.23317 18.7448C3.04913 18.5815 2.93087 18.3567 2.90049 18.1125L1.12549 2.1125C1.1097 1.97309 1.12343 1.83192 1.16577 1.69817C1.20812 1.56441 1.27813 1.44106 1.37127 1.33614C1.4644 1.23121 1.57858 1.14706 1.70636 1.08915C1.83415 1.03124 1.9727 1.00086 2.11299 1H25.888C26.0283 1.00086 26.1668 1.03124 26.2946 1.08915C26.4224 1.14706 26.5366 1.23121 26.6297 1.33614C26.7228 1.44106 26.7929 1.56441 26.8352 1.69817C26.8776 1.83192 26.8913 1.97309 26.8755 2.1125L25.1005 18.1125C25.0701 18.3567 24.9519 18.5815 24.7678 18.7448C24.5838 18.9081 24.3466 18.9988 24.1005 19V19Z" stroke="#FF4F4F" stroke-width="1.5" stroke-linecap="round" stroke-linejoin="round"/>
</svg>
