<svg width="26" height="22" viewBox="0 0 26 22" fill="none" xmlns="http://www.w3.org/2000/svg">
<path d="M13 22C13 22 0.5 15 0.5 6.50001C0.5 4.99737 1.02062 3.54114 1.97328 2.37908C2.92593 1.21703 4.25178 0.420928 5.72525 0.126236C7.19871 -0.168457 8.72876 0.0564609 10.0551 0.762721C11.3814 1.46898 12.4221 2.61296 13 4.00001C13.5779 2.61296 14.6186 1.46898 15.9449 0.762721C17.2712 0.0564609 18.8013 -0.168457 20.2748 0.126236C21.7482 0.420928 23.0741 1.21703 24.0267 2.37908C24.9794 3.54114 25.5 4.99737 25.5 6.50001C25.5 15 13 22 13 22Z" fill="#FF4F4F"/>
</svg>
