<svg width="270" height="140" viewBox="0 0 270 140" fill="none" xmlns="http://www.w3.org/2000/svg">
<g clip-path="url(#clip0_138_263)">
<path d="M136.51 21.6806C136.487 21.5606 136.472 21.4392 136.464 21.3173C136.421 20.7057 136.561 20.0953 136.866 19.5631C137.171 19.031 137.627 18.601 138.177 18.3276C138.727 18.0541 139.345 17.9495 139.955 18.0269C140.564 18.1043 141.137 18.3603 141.6 18.7624C142.064 19.1646 142.398 19.6949 142.559 20.2864C142.721 20.8778 142.703 21.5038 142.509 22.0852C142.314 22.6666 141.951 23.1773 141.465 23.5528C140.98 23.9283 140.393 24.1517 139.781 24.1947C139.674 24.2009 139.567 24.2009 139.46 24.1947C139.397 24.2046 139.338 24.2321 139.29 24.2741C139.114 24.5525 139.737 24.4968 139.313 25.694C139.309 25.7836 139.292 25.8722 139.263 25.9571C139.23 26.4165 139.053 27.7793 139.028 28.5046C139.118 28.6104 139.143 28.6605 139.134 28.9222C139.079 29.5024 138.994 30.0795 138.881 30.6512C138.862 30.789 138.811 30.9205 138.733 31.0358C138.655 31.1511 138.551 31.2471 138.431 31.3166C138.216 32.2771 138.159 33.0734 137.606 34.2399C137.556 35.1253 137.493 35.3661 137.308 35.7977C137.287 37.1007 137.377 37.2942 136.496 39.3572C136.269 40.3219 136.485 40.9887 136.725 41.9924C136.97 43.0226 137.651 43.4527 137.753 44.5079C137.991 46.9928 137.931 48.6841 137.397 50.633L137.863 51.7356C138.442 52 139.877 52.7239 139.081 53.871C140.196 54.4598 141.895 55.0835 143.291 56.2765C143.893 56.7582 144.457 57.2845 144.979 57.8509C145.993 58.0082 145.884 58.089 146.636 58.547C148.846 59.8987 152.39 62.584 154.447 64.4814C154.801 64.6874 154.945 64.8364 155.231 64.9853C155.276 65.0716 155.288 65.0911 155.278 65.1134C155.179 65.3612 155.183 65.3681 155.096 65.5658C155.236 65.6881 155.383 65.8029 155.536 65.9097C155.652 65.9459 155.652 65.8902 155.85 65.8414C156.108 66.0823 156.428 66.2758 156.548 66.2591C156.898 66.17 156.838 66.2424 157.133 65.9124C157.239 65.8039 157.412 65.9124 157.412 65.9124C157.602 65.6859 157.827 65.4913 158.079 65.3361C158.333 65.1872 158.817 65.1705 158.817 65.1705C158.979 65.1705 158.948 65.3375 158.934 65.3918C158.751 65.4865 158.362 65.5895 158.145 65.7496C157.821 66.1011 157.537 66.4872 157.298 66.9008C158.253 66.77 158.841 67.0066 159.637 66.9161C160.071 66.8911 160.392 66.9161 160.848 66.589C161.111 66.405 161.392 66.2456 161.685 66.1129C162.067 65.9473 162.428 66.0349 162.764 66.2786C163.001 66.5458 163.144 66.5472 162.784 66.9231C162.654 67.0693 162.464 67.2335 162.226 67.4702C161.725 67.9796 161.195 68.4601 160.64 68.9096C160.115 69.3247 159.548 69.6839 158.948 69.9815C157.884 70.7443 158.135 70.5383 157.299 71.3012C157.193 71.3958 156.913 71.5643 156.778 71.6534C156.447 71.8691 156.345 71.6896 156.129 71.2928C156.035 71.1427 155.947 70.988 155.868 70.8293C155.691 70.484 155.557 70.0901 155.612 70.097C155.414 70.072 154.521 69.0279 154.52 68.8038C154.331 68.7606 153.526 67.9825 153.497 67.8293L152.784 67.2586C151.968 67.427 151.782 66.9217 149.627 65.396C149.381 65.396 149.002 65.2568 148.458 64.8559C147.481 64.0791 145.153 62.3209 144.759 62.1204C144.34 61.9047 143.827 61.7028 143.516 61.4453C143.05 61.359 142.795 61.3061 142.562 61.2462C142.217 61.1372 141.863 61.0603 141.503 61.0165C140.527 60.8954 139.503 60.4889 138.534 60.0045C138.075 59.7873 137.675 59.6759 137.278 59.5075C136.391 59.1344 135.633 58.7976 135.047 58.6611C134.402 58.5227 133.778 58.2979 133.193 57.9929C133.056 57.904 132.911 57.8289 132.759 57.7688C132.55 57.7305 132.333 57.7634 132.144 57.8621C131.426 58.2365 130.749 58.5581 130.131 58.8922C129.553 59.2012 129.016 59.5214 128.458 59.8458C127.949 60.1395 127.36 60.4165 126.756 60.7047C126.756 60.7047 125.032 61.5678 124.091 61.9019C122.978 62.7764 121.806 63.574 120.584 64.2893C120.079 64.5287 119.099 65.1496 118.647 65.2874C118.389 65.4948 117.469 66.1491 116.75 66.6892C116.192 67.1068 115.773 67.4549 115.773 67.4549C115.45 67.7444 115.472 67.8808 114.858 67.6205C114.688 67.7597 114.556 67.8474 114.44 67.9282C113.996 68.2497 113.959 68.1718 113.797 68.1634C113.487 68.4307 113.448 68.2929 113.178 68.5992C113.001 68.8776 113.178 68.808 112.807 68.9416C112.727 68.9722 112.689 69.0669 112.63 69.1198C112.328 69.3676 112.327 70.0664 111.606 70.1165C111.187 70.4144 111.295 70.7722 110.975 70.7569C110.995 71.0659 110.417 71.5156 110.306 71.5142C109.387 71.8316 109.322 71.1564 108.214 71.6534C108.074 71.7188 107.861 71.8984 107.586 71.9513C107.101 72.0431 106.513 71.9513 106.156 71.6729C105.598 71.2399 105.074 70.4033 105.074 70.4033C104.895 69.9857 104.999 69.7072 105.558 69.3147C105.791 69.1671 105.837 69.0558 106.225 69.0363C106.418 68.9625 106.364 69.0752 106.713 68.95C106.914 68.8776 106.914 68.9291 107.32 68.8943C107.446 68.8323 107.579 68.7856 107.717 68.7551C108.038 68.6493 108.35 68.5323 108.35 68.5323C108.35 68.5323 108.433 68.4502 108.739 68.4794C109 68.3722 109.268 68.2149 109.405 68.1662C109.37 67.7486 109.415 67.7737 109.606 67.6094C109.844 67.4048 109.885 67.4382 110.064 67.5648C110.14 67.5217 110.176 67.5064 110.168 67.4437C110.138 67.2294 109.954 67.1277 110.01 66.6544C109.928 66.4651 109.808 66.2368 109.834 66.0892C109.861 65.9417 109.911 65.8637 110.003 65.8108C110.095 65.7579 110.134 65.8289 110.186 65.8888C110.265 66.0231 110.323 66.1692 110.356 66.3217C110.389 66.6878 110.502 67.157 110.865 66.8939C111.079 66.6781 111.12 66.1018 111.562 66.2257L111.874 66.4957C112.001 66.3603 112.147 66.2436 112.307 66.1491C112.307 66.1491 112.06 65.8999 112.277 65.7064C112.509 65.5343 112.725 65.3409 112.921 65.1287C113.61 64.343 114.368 63.6195 115.185 62.9668C116.815 61.6537 118.629 60.5866 120.57 59.7998C121.014 59.243 121.446 58.8644 122.431 58.7697C123.601 56.7971 125.842 55.0348 126.359 54.7536C126.777 53.9963 126.96 54.077 127.506 53.9183C127.94 53.5717 128.039 53.5717 128.233 53.2084C128.421 52.4594 127.798 50.459 129.391 50.3574C129.583 50.072 129.794 49.7999 130.023 49.543C129.815 49.0265 129.67 48.4866 129.593 47.9352C129.581 47.8823 128.961 47.4466 129.137 46.8772C128.79 46.446 128.485 45.9821 128.228 45.4921C128.158 45.4854 128.089 45.4733 128.021 45.4559C127.94 45.4434 127.841 45.4475 127.728 45.4378C127.48 46.0768 127.209 46.1241 126.769 46.2661C125.981 47.9366 125.703 48.6507 123.474 50.0372C122.942 50.6374 122.545 51.3448 122.311 52.1114C122.159 52.4385 122.212 52.8952 122.293 53.1402C122.176 53.5035 122.206 53.5383 122.206 53.5383C122.232 53.6183 122.274 53.6918 122.332 53.7534C122.389 53.815 122.459 53.8633 122.537 53.8947C122.805 53.9657 123.072 53.9545 123.057 54.2524C123.021 54.6255 122.531 54.5642 122.3 54.5225C121.407 54.3833 121.69 53.8014 121.12 53.9949C120.683 54.2733 120.519 55.1225 119.806 55.0125C119.711 54.9499 119.74 54.7661 119.806 54.6339C119.906 54.4264 120.085 54.2538 119.977 54.1772C119.514 54.3165 118.583 54.6297 118.583 54.6297C118.146 54.7494 117.668 54.5308 118.097 54.2441C118.39 54.1427 118.671 54.0087 118.934 53.8445C118.934 53.8445 119.115 53.5981 118.768 53.7206C118.337 53.8684 117.88 53.9281 117.425 53.8961C117.425 53.8961 116.588 53.7875 116.485 53.722C116.382 53.6566 116.278 53.3991 116.539 53.4005C117.146 53.3761 117.749 53.2875 118.337 53.136C118.647 53.0163 119.234 52.6682 119.564 52.5054C119.564 52.5054 119.923 51.9847 120.122 51.8817C120.452 51.5031 120.729 51.2803 121.019 50.8947C121.298 50.3087 121.598 49.3816 122.54 47.9463C123.02 47.19 123.574 46.4827 124.194 45.8345C124.341 45.1098 124.713 44.4496 125.257 43.9469C125.489 43.4312 125.751 42.9297 126.042 42.4448C126.156 42.2527 126.264 42.0843 126.372 41.9019C126.651 41.4718 126.93 40.6699 128.007 40.5433C128.239 40.3744 128.451 40.1806 128.64 39.9656C128.919 39.7317 128.852 39.367 129.076 39.1108C128.734 38.7781 127.862 38.1545 127.777 37.2858C127.731 36.8768 127.778 36.4627 127.916 36.0749C128.054 35.687 128.279 35.3356 128.573 35.0473C129.193 34.4293 129.844 34.1216 130.636 34.1676C131.625 34.3137 131.812 34.6409 132.127 34.9652C132.443 35.2896 132.546 35.0752 132.67 35.4343C133.5 35.6543 133.454 35.5582 133.447 36.1666C133.574 36.3378 133.789 36.4979 133.786 36.8529C134.065 36.2752 134.121 36.1694 134.865 35.5332C135.041 35.0167 135.161 34.5086 135.316 33.9922C135.455 33.5147 135.641 33.0177 135.782 32.653C135.634 31.6089 135.938 31.4363 136.34 30.5217C136.267 30.3964 136.283 30.3602 136.313 30.1528C136.471 29.5473 136.718 28.7482 136.871 28.2262C136.887 28.1664 136.92 28.1128 136.967 28.0729C137.015 28.033 137.073 28.0087 137.135 28.0034C137.32 27.3436 137.599 26.113 137.647 25.8624C137.838 25.1664 137.715 24.9506 137.567 24.5608C137.52 24.4342 137.542 24.2518 137.46 24.1112C137.228 23.7089 136.979 23.1855 136.81 22.811C136.7 22.573 136.531 21.6751 136.531 21.6751C136.383 21.2171 136.513 21.6751 136.513 21.6751" fill="#464646"/>
</g>
<path fill-rule="evenodd" clip-rule="evenodd" d="M195.489 109.402V110.188H200.314L200.227 92.7438L204.043 110.188H209V75.1225H204.173L204.218 92.5253L200.446 75.1225H195.489V109.402ZM143.155 109.402V110.188H148.507C149.41 110.238 150.315 110.134 151.183 109.882C151.929 109.707 152.63 109.313 153.112 108.701C153.244 108.569 153.376 108.439 153.463 108.263H153.508C153.951 107.557 154.29 106.792 154.516 105.991C155.043 104.023 155.35 102.012 155.526 100.001V99.9565C155.709 95.5137 155.738 91.066 155.613 86.6213C155.613 84.9156 155.481 83.1669 155.13 81.462C154.955 80.3249 154.603 79.1885 154.122 78.0953C153.727 77.2205 153.112 76.4335 152.278 75.8649C152.235 75.821 152.191 75.7772 152.148 75.7772H152.103C151.796 75.5587 151.445 75.4279 151.05 75.3402C150.567 75.2094 150.042 75.1217 149.559 75.1217H143.155V109.402ZM147.716 103.674V81.5935C148.244 81.5935 148.771 81.5935 149.297 81.6812C149.428 81.6812 149.56 81.7251 149.647 81.769H149.692C149.824 81.8559 149.954 81.9875 150.043 82.119C150.086 82.1629 150.086 82.2067 150.13 82.2937C150.261 82.6429 150.393 82.9938 150.48 83.3431C150.699 84.0863 150.787 84.8733 150.831 85.6604C151.05 89.0709 151.095 92.4807 151.006 95.892C151.006 97.3345 150.919 98.7771 150.787 100.22C150.7 101.138 150.48 102.013 150.217 102.886C150.173 103.018 150.085 103.149 150.042 103.236H149.997C149.953 103.368 149.822 103.455 149.733 103.498H149.69C149.558 103.586 149.383 103.629 149.251 103.629H148.944L147.716 103.674ZM112.623 109.402V110.188H116.965V95.4965C117.492 95.4965 117.974 95.5412 118.457 95.6281H118.501C118.632 95.6281 118.763 95.6727 118.895 95.715C119.114 95.8035 119.246 95.9335 119.422 96.1097C119.597 96.4159 119.772 96.7644 119.816 97.1145C119.948 97.6838 119.992 98.2955 120.035 98.864L120.123 105.16C120.123 106.646 120.211 108.089 120.387 109.531L120.475 110.187H126.001L125.388 108.964C125.124 108.439 124.905 107.915 124.817 107.302C124.729 106.647 124.642 105.991 124.642 105.334L124.467 98.0762C124.467 97.0268 124.379 95.9335 124.204 94.928C124.068 94.0641 123.738 93.2422 123.238 92.5237L123.194 92.4791C123.085 92.3271 122.952 92.1942 122.8 92.086C122.887 91.9991 122.975 91.9098 123.019 91.8228C123.544 91.0796 123.94 90.2487 124.116 89.3309C124.598 86.6635 124.686 83.9531 124.335 81.2858C124.257 80.2644 124.02 79.2614 123.632 78.313C123.325 77.4382 122.799 76.695 122.097 76.0834L122.053 76.0395C121.307 75.5148 120.386 75.1648 119.421 75.1209H112.621V109.402H112.623ZM116.966 89.2886V81.375H117.975C118.326 81.375 118.633 81.4189 118.984 81.5497C119.16 81.6374 119.335 81.7251 119.466 81.8997C119.466 81.8997 119.466 81.9436 119.51 81.9436V81.9875C119.554 82.0313 119.554 82.0744 119.598 82.1182C119.774 82.4683 119.906 82.8614 119.95 83.2115C120.125 84.654 120.081 86.0973 119.906 87.496C119.862 87.8899 119.73 88.2392 119.598 88.5893C119.51 88.7639 119.379 88.8955 119.247 89.0263C118.971 89.1593 118.675 89.2479 118.37 89.2886H116.966ZM87.6186 92.6553C87.5746 94.6664 87.6186 96.6352 87.7066 98.6463C87.7506 100.22 87.8818 101.794 88.057 103.368V103.411C88.2331 104.897 88.6275 106.384 89.1979 107.827C89.5051 108.659 90.0316 109.403 90.6892 110.057C90.8204 110.189 90.9965 110.276 91.1277 110.407H91.1717C91.4789 110.626 91.8293 110.757 92.1805 110.845C92.9262 111.02 93.6718 111.064 94.4183 110.888C94.8644 110.794 95.2935 110.632 95.6904 110.408V110.363H95.7344C96.3933 109.89 96.9214 109.258 97.2697 108.527C97.3577 108.352 97.4889 108.177 97.5329 108.002C98.1906 106.471 98.6298 104.81 98.761 103.149C99.2002 97.7269 99.3314 92.306 99.1122 86.9282C99.0679 85.1738 98.9363 83.4227 98.7178 81.6812C98.5426 80.2387 98.1473 78.7954 97.6209 77.4398C97.2699 76.6112 96.7466 75.8663 96.0856 75.2541C95.9096 75.1225 95.7784 74.9917 95.6464 74.904L95.6024 74.8601C95.2856 74.6839 94.9462 74.5516 94.5935 74.467C93.8582 74.2916 93.0918 74.2916 92.3565 74.467C91.9102 74.5611 91.4811 74.7233 91.0845 74.9479V74.9917H91.0405C90.426 75.4726 89.8996 76.1288 89.5051 76.8282L89.2419 77.3529C88.6327 78.8201 88.2338 80.3655 88.057 81.9436C87.7066 85.4849 87.5314 89.0709 87.6186 92.6553ZM91.8301 92.6992V92.6545C91.8301 90.5134 91.8301 88.3269 91.9173 86.1843C91.9173 85.0479 92.0493 83.9547 92.2245 82.8614V82.8176C92.274 82.3793 92.3923 81.9514 92.575 81.5497C92.663 81.375 92.751 81.2004 92.9262 81.0688L93.0142 80.9819C93.2334 80.8511 93.5406 80.8511 93.8039 80.9819C93.8039 81.0258 93.8479 81.0258 93.8919 81.0688C93.9359 81.1127 94.0231 81.1565 94.0671 81.2004C94.2423 81.4628 94.3743 81.7251 94.4183 82.0313C94.6375 82.8184 94.7255 83.6054 94.8127 84.3925C94.9879 88.6778 95.0319 92.9631 94.9439 97.2915V97.3345C94.9508 99.001 94.8482 100.666 94.6367 102.319C94.5875 102.799 94.4695 103.27 94.2863 103.717C94.1983 103.893 94.1111 104.067 93.9351 104.199C93.9351 104.243 93.8471 104.286 93.8039 104.33C93.5846 104.417 93.2774 104.417 93.0582 104.286C93.0142 104.286 92.9702 104.243 92.9702 104.243H92.9262C92.8723 104.192 92.8279 104.132 92.795 104.066C92.6198 103.848 92.4878 103.542 92.4005 103.235C92.2253 102.536 92.0933 101.836 92.0501 101.093C91.8741 98.2962 91.7861 95.4973 91.8301 92.6992ZM62.7464 98.0331H62V102.493C62 103.806 62.132 105.117 62.4392 106.384C62.6639 107.305 63.0499 108.178 63.5793 108.965C64.0617 109.751 64.8514 110.363 65.7291 110.669C66.9571 111.107 68.3612 111.107 69.5893 110.626C70.335 110.32 71.0366 109.838 71.5199 109.226C72.2497 108.243 72.745 107.107 72.968 105.904C73.1422 104.996 73.2304 104.074 73.2312 103.149L73.2752 75.9095V75.1225H68.0548V97.5076C68.0988 99.3887 68.0548 101.269 68.0108 103.192C68.0108 103.498 67.9668 103.848 67.8796 104.198C67.8796 104.285 67.8356 104.373 67.7916 104.46C67.7476 104.504 67.7476 104.548 67.7036 104.548C67.663 104.586 67.6117 104.61 67.5568 104.618C67.5018 104.625 67.4458 104.616 67.3964 104.591L67.3092 104.548C67.2559 104.481 67.2117 104.408 67.1779 104.33L67.0467 103.935C67.0027 103.629 66.9587 103.323 66.9587 103.017V98.0323L62.7464 98.0331Z" fill="#464646"/>
<path fill-rule="evenodd" clip-rule="evenodd" d="M169.519 109.27L169.431 110.188H174.081L174.914 101.794H177.591L178.424 110.188H183.293L179.083 75.1225H173.555L169.519 109.27Z" fill="#464646"/>
<path fill-rule="evenodd" clip-rule="evenodd" d="M108.719 94.0987L106.174 87.7145H104.814L102.314 94.0987H103.673L104.2 92.6546H106.788L107.314 94.0987H108.719ZM106.35 91.5629H104.596L105.473 89.2017L106.35 91.5629ZM134.425 94.3602H135.697V87.9777H134.425V94.3602ZM161.052 95.0165H162.369V92.393H162.631C162.808 92.3483 162.982 92.393 163.158 92.393C163.273 92.4249 163.379 92.4849 163.466 92.5676C163.597 92.6123 163.684 92.7438 163.774 92.8308C163.993 93.0923 164.168 93.3555 164.343 93.6617L165.266 95.0165H166.845L166.055 93.7932C165.923 93.5747 165.747 93.3555 165.615 93.137C165.358 92.7551 165.012 92.4403 164.607 92.2191C164.782 92.2191 164.957 92.1745 165.089 92.0876C165.417 92.0094 165.711 91.8249 165.923 91.5629C166.187 91.2567 166.319 90.862 166.319 90.4265C166.319 90.3396 166.319 90.208 166.274 90.1203C166.229 89.551 165.835 89.0701 165.308 88.8516C165.164 88.7628 164.996 88.7173 164.826 88.7209C164.475 88.677 164.123 88.6332 163.774 88.677H161.053V95.0165H161.052ZM162.369 91.3444V89.7264H164.08C164.167 89.7264 164.255 89.771 164.299 89.771H164.43C164.523 89.7955 164.611 89.8393 164.687 89.8996C164.762 89.9599 164.824 90.0353 164.869 90.1211C164.956 90.2511 164.956 90.3827 164.956 90.5142V90.6889C164.935 90.8299 164.875 90.9622 164.781 91.0704C164.688 91.1786 164.566 91.2584 164.43 91.3005C164.342 91.3005 164.254 91.3005 164.167 91.3452H162.369V91.3444Z" fill="#464646"/>
<path fill-rule="evenodd" clip-rule="evenodd" d="M175.618 95.148H176.932L176.274 88.5892L175.618 95.148Z" fill="white"/>
<defs>
<clipPath id="clip0_138_263">
<rect width="58" height="54" fill="white" transform="translate(105 18)"/>
</clipPath>
</defs>
</svg>
