<svg width="270" height="140" viewBox="0 0 270 140" fill="none" xmlns="http://www.w3.org/2000/svg">
<path fill-rule="evenodd" clip-rule="evenodd" d="M120.139 67.0087L99.5591 67.7428L119.1 68.8305L120.139 67.0087ZM117.677 71.3404L97.0485 72.0754L116.662 73.167L117.677 71.3404ZM115.216 75.7085L94.6126 76.433L114.202 77.5236L115.216 75.7085ZM112.805 80.0546L92.1757 80.7906L111.743 81.8793L112.805 80.0546ZM138.022 45.1442L111.755 46.0805L138.097 47.5467L138.022 45.1442ZM137.856 40.8451L114.259 41.674L137.93 43.0339L137.856 40.8451ZM137.687 36.6983L116.663 37.3912L137.789 38.5661L137.687 36.6983ZM137.546 32.4414L119.117 33.0586L137.618 34.153L137.546 32.4414ZM137.426 29H121.398L137.45 29.8529L137.426 29ZM110.319 84.3987L89.7397 85.1453H109.899L110.319 84.3987Z" fill="#464646"/>
<path fill-rule="evenodd" clip-rule="evenodd" d="M180.062 29.139H150.404L149.563 30.6302L164.404 31.4189C164.578 31.4189 164.578 31.6661 164.329 31.6661L148.698 32.1894L147.19 34.8325L161.93 35.7046C162.128 35.7295 162.079 36.0016 161.906 36.0016L146.248 36.5172L144.791 39.0482L159.507 39.8666C159.829 39.8915 159.829 40.1647 159.507 40.1647L143.876 40.7138L142.392 43.3607L157.059 44.2031C157.38 44.228 157.356 44.5251 157.059 44.5251L141.427 45.0829L139.917 47.6972L154.609 48.5147C154.831 48.5396 154.857 48.8127 154.56 48.8127L109.518 50.324L152.26 52.7026C152.53 52.7026 152.507 53.0495 152.209 53.0495L107.094 54.6605L149.836 57.0382C150.034 57.0382 150.083 57.3602 149.786 57.3602L104.596 58.9951L147.338 61.3737C147.512 61.3986 147.684 61.7206 147.314 61.7455L102.197 63.3536L144.938 65.7313C145.061 65.7562 145.184 66.0782 144.889 66.0782L122.182 66.8889L122.256 68.9417L142.489 70.0677C142.637 70.0927 142.711 70.3897 142.438 70.3897L122.331 71.1056L122.43 73.4018L139.992 74.3793C140.164 74.4042 140.239 74.7511 139.941 74.7511L122.528 75.3635L122.604 77.883L137.569 78.7158C137.741 78.7397 137.791 79.0618 137.494 79.0618L122.678 79.5917L122.777 82.3632L135.144 83.0513C135.318 83.0762 135.318 83.3743 135.07 83.3743L122.827 83.818L122.876 85.0092H162.799C173.384 85.0092 182.881 77.2792 184.663 71.1344C186.445 64.9905 186.445 59.4407 177.936 56.6663C182.686 55.5757 190.946 50.21 192.579 42.7915C194.06 36.0515 191.588 29.1639 180.062 29.139ZM159.981 72.1684H147.713L154.638 59.8796H163.741C173.14 59.8796 168.588 72.1684 159.981 72.1684ZM175.859 45.8055C175.463 47.2918 172.493 51.0581 168.736 51.0581H159.634L165.47 40.7521H170.121C176.056 40.9505 176.254 44.32 175.859 45.8055ZM225 102.816C225 98.0541 221.048 94.0655 216.293 94.0655C211.416 94.0655 207.434 98.1174 207.434 103.095C207.429 104.266 207.655 105.426 208.1 106.509C208.546 107.591 209.2 108.575 210.027 109.403C210.854 110.231 211.836 110.887 212.917 111.332C213.998 111.778 215.156 112.005 216.325 112C219.935 112 223.362 109.526 224.381 106.156H219.874C218.978 107.578 217.807 108.227 216.2 108.227C214.163 108.227 212.343 106.835 211.755 104.856H224.782C224.938 103.899 225 103.434 225 102.816ZM211.633 101.624C212.219 99.3048 214.072 97.8203 216.356 97.8203C218.641 97.8203 220.431 99.2741 220.986 101.624H211.633ZM166.478 94.8906V96.2793C165.183 94.8878 163.306 94.0962 161.298 94.0962C156.853 94.0962 153.063 97.8989 153.063 102.847C153.063 107.515 156.416 111.702 161.386 111.702C163.578 111.702 165.245 111.195 166.819 109.402V111.597H170.587V94.8906H166.478ZM161.877 108.161C160.504 108.161 159.188 107.615 158.217 106.642C157.246 105.67 156.701 104.351 156.701 102.976C156.701 101.601 157.246 100.282 158.217 99.3093C159.188 98.3369 160.504 97.7906 161.877 97.7906C163.25 97.7906 164.567 98.3369 165.538 99.3093C166.508 100.282 167.054 101.601 167.054 102.976C167.054 104.351 166.508 105.67 165.538 106.642C164.567 107.615 163.25 108.161 161.877 108.161ZM54.2119 94.0646C52.5146 94.0646 51.2182 94.652 49.7974 96.1058V94.4671H46V111.597H50.1065V103.526C50.1065 101.332 50.2911 97.8366 53.3164 97.8366C56.1561 97.8366 56.4651 101.114 56.4651 103.217V111.596H60.5706V102.413C60.5706 100.001 60.386 98.8572 59.7373 97.4964C58.7805 95.4561 56.5273 94.0646 54.2119 94.0646ZM79.7232 102.816C79.7232 98.0541 75.7718 94.0655 71.0176 94.0655C66.14 94.0655 62.1579 98.1174 62.1579 103.095C62.1531 104.266 62.3798 105.426 62.8249 106.508C63.2699 107.591 63.9246 108.575 64.7511 109.402C65.5776 110.23 66.5596 110.886 67.6404 111.332C68.7212 111.778 69.8794 112.005 71.0482 112C74.66 112 78.0862 109.526 79.1052 106.156H74.5988C73.7032 107.578 72.5302 108.227 70.9248 108.227C68.8878 108.227 67.0661 106.835 66.4796 104.856H79.5061C79.662 103.899 79.7232 103.434 79.7232 102.816ZM66.3572 101.624C66.9437 99.3048 68.796 97.8203 71.0807 97.8203C73.3655 97.8203 75.1556 99.2741 75.7115 101.624H66.3572ZM147.276 111.583H151.381V88.7324H147.276V111.583ZM181.418 94.0646C179.72 94.0646 178.423 94.652 177.003 96.1058V94.4671H173.205V111.597H177.313V103.526C177.313 101.332 177.497 97.8366 180.523 97.8366C183.361 97.8366 183.671 101.114 183.671 103.217V111.596H187.777V102.413C187.777 100.001 187.592 98.8572 186.944 97.4964C185.987 95.4561 183.734 94.0646 181.418 94.0646ZM198.026 97.8375C199.908 97.8375 200.988 98.4566 202.008 100.187H206.637C205.372 96.5083 202.131 94.0646 198.179 94.0646C193.178 94.0646 189.164 98.0532 189.164 102.97C189.164 107.917 193.208 111.999 198.179 111.999C199.447 111.992 200.699 111.722 201.857 111.206C203.016 110.69 204.054 109.938 204.908 108.999C205.773 108.041 206.082 107.484 206.637 105.97H202.008C201.049 107.454 199.816 108.226 198.273 108.226C195.4 108.226 193.272 106 193.272 103.031C193.272 100.033 195.309 97.8375 198.026 97.8375ZM95.4162 104.919L92.5085 94.468H89.2048L86.2656 104.919L82.7897 94.468H79.1674L84.8774 111.597H87.5075L90.8419 100.498L94.0824 111.597H96.8427L102.318 94.468H98.9237L95.4162 104.919ZM117.413 94.0828C115.407 94.0828 113.53 94.8744 112.233 96.2649V88.7333H108.127V111.583H111.893V109.388C113.468 111.181 115.134 111.687 117.326 111.687C122.297 111.687 125.649 107.501 125.649 102.832C125.65 97.8855 121.859 94.0828 117.413 94.0828ZM116.834 108.161C115.461 108.161 114.145 107.615 113.174 106.642C112.203 105.67 111.658 104.351 111.658 102.976C111.658 101.601 112.203 100.282 113.174 99.3093C114.145 98.3369 115.461 97.7906 116.834 97.7906C118.207 97.7906 119.524 98.3369 120.495 99.3093C121.466 100.282 122.011 101.601 122.011 102.976C122.011 104.351 121.466 105.67 120.495 106.642C119.524 107.615 118.207 108.161 116.834 108.161ZM140.426 94.8906V96.2793C139.13 94.8878 137.254 94.0962 135.246 94.0962C130.801 94.0962 127.01 97.8989 127.01 102.847C127.01 107.515 130.363 111.702 135.333 111.702C137.525 111.702 139.191 111.195 140.766 109.402V111.597H144.532V94.8906H140.426ZM135.826 108.161C134.453 108.161 133.137 107.615 132.166 106.642C131.195 105.67 130.65 104.351 130.65 102.976C130.65 101.601 131.195 100.282 132.166 99.3093C133.137 98.3369 134.453 97.7906 135.826 97.7906C137.199 97.7906 138.516 98.3369 139.487 99.3093C140.457 100.282 141.003 101.601 141.003 102.976C141.003 104.351 140.457 105.67 139.487 106.642C138.516 107.615 137.199 108.161 135.826 108.161Z" fill="#464646"/>
</svg>
