<svg width="245" height="130" viewBox="0 0 245 130" fill="none" xmlns="http://www.w3.org/2000/svg">
<path fill-rule="evenodd" clip-rule="evenodd" d="M41.0664 79.5813C39.1182 79.5813 37.5929 80.9655 37.5929 82.9854C37.5929 85.0065 39.1261 86.3828 41.0664 86.3828C43.0055 86.3828 44.5399 84.9972 44.5399 82.9854C44.5399 80.9655 43.0133 79.5813 41.0664 79.5813ZM41.0664 85.4094C39.6773 85.4094 38.6469 84.3789 38.6469 82.9854C38.6469 81.5931 39.6694 80.5546 41.0664 80.5546C42.4464 80.5546 43.4846 81.6091 43.4846 82.9854C43.4846 84.3537 42.4372 85.4094 41.0664 85.4094ZM74.8653 67.6749H57.956L59.8781 37.8253L48.8972 67.6749H33.1951L58.1092 0.2061H74.8169L72.8883 30.4653L84.0773 0.2061H99.7808L74.8653 67.6749ZM76.9052 67.6749L101.818 0.2061H117.52L92.6073 67.6749H76.9052Z" fill="white"/>
<path fill-rule="evenodd" clip-rule="evenodd" d="M31.3843 44.4194C9.44223 70.5897 -11.2561 105.411 7.02662 121.446C24.7424 136.985 46.8861 127.785 61.9847 121.651C77.0832 115.517 243.967 41.9142 243.967 41.9142C245.577 41.0964 245.276 40.0739 243.263 40.5845C242.451 40.7906 61.5827 90.5728 61.5827 90.5728C38.6312 97.1163 12.4614 82.8551 31.3843 44.4194Z" fill="white"/>
<path fill-rule="evenodd" clip-rule="evenodd" d="M41.6582 83.2247C42.1452 83.2008 42.5262 82.9455 42.5262 82.2607C42.5262 81.3777 41.958 81.1557 41.0088 81.1557H39.6445V84.8164H40.5545V83.2579H40.7077L41.5364 84.8164H42.5825L41.6582 83.2247ZM41.0743 82.6317H40.5558V81.782H40.9931C41.2615 81.782 41.5692 81.8139 41.5692 82.1689C41.5692 82.5492 41.3911 82.6317 41.0743 82.6317ZM198.91 0C196.962 0 195.436 1.38557 195.436 3.40409C195.436 5.42394 196.971 6.8002 198.91 6.8002C200.849 6.8002 202.383 5.41463 202.383 3.40409C202.385 1.38557 200.859 0 198.91 0ZM198.91 5.8295C197.521 5.8295 196.49 4.79897 196.49 3.40542C196.49 2.0132 197.513 0.974684 198.91 0.974684C200.29 0.974684 201.329 2.02916 201.329 3.40542C201.329 4.77371 200.282 5.8295 198.91 5.8295Z" fill="white"/>
<path fill-rule="evenodd" clip-rule="evenodd" d="M199.503 3.64343C199.99 3.6195 200.372 3.36419 200.372 2.67939C200.372 1.79645 199.803 1.57438 198.855 1.57438H197.491V5.23379H198.399V3.67668H198.554L199.381 5.23379H200.429L199.503 3.64343ZM198.918 3.05038H198.399V2.20069H198.838C199.105 2.20069 199.414 2.23393 199.414 2.58896C199.414 2.96794 199.235 3.05038 198.918 3.05038ZM188.564 11.4516L192.784 0.2061H144.872L128.421 20.4471L136.016 0.2061H120.113L95.3987 67.6749H111.101L121.652 39.4609L122.375 67.6749L170.555 67.5686L175.141 54.5905H156.823L162.842 38.2349H177.939L182.585 25.661H167.487L172.663 11.4516H188.564ZM137.953 63.1765L136.946 28.0119L160.687 1.53848L137.953 63.1765Z" fill="white"/>
</svg>
