<svg width="270" height="140" viewBox="0 0 270 140" fill="none" xmlns="http://www.w3.org/2000/svg">
<path fill-rule="evenodd" clip-rule="evenodd" d="M81.8189 79.9714C80.5466 79.9714 79.5505 80.8754 79.5505 82.1945C79.5505 83.5145 80.5517 84.4132 81.8189 84.4132C83.0852 84.4132 84.0873 83.5084 84.0873 82.1945C84.0873 80.8754 83.0903 79.9714 81.8189 79.9714ZM81.8189 83.7776C80.9117 83.7776 80.2388 83.1046 80.2388 82.1945C80.2388 81.2853 80.9066 80.6071 81.8189 80.6071C82.7201 80.6071 83.3981 81.2957 83.3981 82.1945C83.3981 83.0881 82.7141 83.7776 81.8189 83.7776ZM103.892 72.1959H92.8489L94.104 52.7022L86.9329 72.1959H76.6784L92.9489 28.1346H103.86L102.601 47.8957L109.908 28.1346H120.163L103.892 72.1959ZM105.224 72.1959L121.493 28.1346H131.748L115.478 72.1959H105.224Z" fill="#464646"/>
<path fill-rule="evenodd" clip-rule="evenodd" d="M75.4959 57.0086C61.1664 74.0994 47.6491 96.8399 59.5888 107.312C71.1583 117.46 85.6195 111.451 95.4798 107.446C105.34 103.44 214.325 55.3725 214.325 55.3725C215.377 54.8385 215.18 54.1707 213.865 54.5041C213.335 54.6387 95.2173 87.1495 95.2173 87.1495C80.2285 91.4229 63.1381 82.1094 75.4959 57.0086Z" fill="#464646"/>
<path fill-rule="evenodd" clip-rule="evenodd" d="M82.2054 82.3508C82.5235 82.3352 82.7723 82.1685 82.7723 81.7212C82.7723 81.1446 82.4012 80.9996 81.7813 80.9996H80.8903V83.3903H81.4846V82.3725H81.5846L82.1259 83.3903H82.809L82.2054 82.3508ZM81.824 81.9635H81.4854V81.4086H81.771C81.9463 81.4086 82.1472 81.4295 82.1472 81.6613C82.1472 81.9097 82.031 81.9635 81.824 81.9635ZM184.9 28C183.628 28 182.632 28.9049 182.632 30.2231C182.632 31.5422 183.634 32.4409 184.9 32.4409C186.167 32.4409 187.169 31.5361 187.169 30.2231C187.17 28.9049 186.173 28 184.9 28ZM184.9 31.807C183.993 31.807 183.32 31.134 183.32 30.2239C183.32 29.3147 183.988 28.6365 184.9 28.6365C185.801 28.6365 186.48 29.3252 186.48 30.2239C186.48 31.1175 185.796 31.807 184.9 31.807Z" fill="#464646"/>
<path fill-rule="evenodd" clip-rule="evenodd" d="M185.288 30.3794C185.606 30.3637 185.855 30.197 185.855 29.7498C185.855 29.1732 185.483 29.0282 184.864 29.0282H183.973V31.418H184.567V30.4011H184.668L185.208 31.418H185.892L185.288 30.3794ZM184.905 29.9921H184.567V29.4372H184.853C185.028 29.4372 185.229 29.4589 185.229 29.6907C185.229 29.9382 185.112 29.9921 184.905 29.9921ZM178.144 35.4786L180.9 28.1346H149.61L138.867 41.3532L143.827 28.1346H133.441L117.301 72.1959H127.556L134.446 53.7704L134.918 72.1959L166.383 72.1264L169.378 63.6509H157.415L161.346 52.9697H171.205L174.239 44.7582H164.379L167.759 35.4786H178.144ZM145.092 69.2581L144.434 46.2935L159.938 29.0047L145.092 69.2581Z" fill="#464646"/>
</svg>
