<svg width="270" height="140" viewBox="0 0 270 140" fill="none" xmlns="http://www.w3.org/2000/svg">
<g clip-path="url(#clip0_138_255)">
<path d="M141.286 32.7542C140.774 32.8321 140.283 34.6916 139.294 35.6603C138.571 36.3594 137.668 36.3157 137.189 37.18C137.007 37.5029 137.065 38.0541 136.859 38.5833C136.456 39.6417 135.034 39.7364 135.034 40.8896C135.029 42.135 136.219 42.3729 137.25 43.2565C138.054 43.9678 138.133 44.4582 139.107 44.8029C139.938 45.0822 141.175 44.1693 142.29 44.4971C143.205 44.7666 144.08 44.9608 144.287 45.8882C144.469 46.7427 144.274 48.0681 143.165 47.9153C142.791 47.874 141.17 47.335 139.178 47.5438C136.775 47.8133 134.033 48.5876 133.765 51.2316C133.617 52.71 135.469 54.4531 137.257 54.0986C138.494 53.8581 137.909 52.4188 138.583 51.7195C139.466 50.8238 144.469 54.8464 149.12 54.8464C151.078 54.8464 152.534 54.3584 153.98 52.863C154.115 52.7488 154.28 52.5036 154.489 52.489C154.686 52.5036 155.03 52.6953 155.143 52.7779C158.889 55.7494 161.72 61.7095 175.486 61.7799C177.422 61.7894 179.628 62.7024 181.428 64.324C183.034 65.7904 183.974 68.0698 184.886 70.3834C186.264 73.8552 188.733 77.2321 192.477 80.9901C192.681 81.1915 195.763 83.5562 196.008 83.7334C196.048 83.7576 196.274 84.2917 196.196 84.5903C196.104 86.8432 195.772 93.3954 200.721 93.6917C201.931 93.7523 201.614 92.9124 201.614 92.3346C201.611 91.1935 201.4 90.0598 202.01 88.8921C202.843 87.2851 200.241 86.5445 200.318 83.0706C200.372 80.4802 198.168 80.922 197.049 78.9483C196.404 77.8049 195.831 77.1981 195.873 75.7995C196.124 67.9292 194.176 62.7581 193.205 61.4885C192.447 60.5296 191.82 60.1485 192.513 59.7041C196.643 57.0118 197.58 54.5064 197.58 54.5064C199.776 49.4108 201.752 44.7567 204.474 42.708C205.023 42.2854 206.43 41.2489 207.293 40.841C209.834 39.6587 211.172 38.9426 211.91 38.2336C213.078 37.1096 214 34.7669 212.881 33.3467C211.489 31.5939 209.081 32.985 208.019 33.6064C200.426 38.0541 199.307 45.9002 196.677 50.4061C194.579 54.0063 191.168 56.6501 188.118 56.8662C185.831 57.0336 183.367 56.5772 180.912 55.5139C174.943 52.9309 171.676 49.5953 170.906 49.0054C169.303 47.7842 156.852 35.721 146.766 35.2282C146.766 35.2282 145.514 32.7544 145.199 32.7131C144.461 32.6208 143.706 34.1915 143.165 34.3738C142.656 34.5411 141.8 32.6717 141.286 32.7542ZM96.8815 104.752C95.9321 104.73 95.1255 103.961 95.1255 103.009L95.1279 71.9542H84.7585V106.187C84.7585 107.865 86.1357 109.234 87.8254 109.234H105.95C107.652 109.234 109.012 107.865 109.012 106.187V71.9542H98.6524L98.6426 103.009C98.6426 103.961 97.8358 104.73 96.8815 104.752ZM131.6 71.9542H115.906C114.049 71.9542 112.537 73.4448 112.537 75.2971V109.234H122.916V78.1037C122.923 77.1497 123.705 76.3946 124.669 76.3946C125.638 76.3946 126.416 77.1326 126.438 78.0771V109.234H136.775V78.0767C136.787 77.1324 137.565 76.3944 138.531 76.3944C139.49 76.3944 140.282 77.1495 140.29 78.1035V109.234H150.669V75.2971C150.669 73.4448 149.154 71.9542 147.297 71.9542H131.6ZM70.8816 78.1691C70.889 77.1324 70.0331 76.3944 69.1255 76.3944H67.3645V95.2502H69.1255C70.0406 95.2502 70.8892 94.5316 70.8816 93.5V78.1691ZM77.8397 99.8652H67.3645V109.234H57V71.9542H77.9063C79.7778 71.9542 81.2387 73.4545 81.2387 75.3118V96.5079C81.2387 98.3675 79.7213 99.8652 77.8397 99.8652ZM186.237 100.897C184.154 100.897 182.405 102.674 182.405 104.828C182.405 106.988 184.154 108.751 186.303 108.751C188.436 108.751 190.162 106.988 190.162 104.828C190.162 102.669 188.436 100.897 186.303 100.897H186.237ZM190.905 104.815C190.905 107.347 188.849 109.406 186.303 109.406C183.73 109.406 181.664 107.362 181.664 104.815C181.664 102.317 183.73 100.229 186.227 100.229C188.849 100.229 190.905 102.254 190.905 104.815Z" fill="#464646"/>
<path d="M185.823 104.524C186.544 104.524 186.923 104.271 186.923 103.767C186.923 103.317 186.556 103.087 185.855 103.087H185.649V104.524H185.823ZM188.477 107.471H187.24L185.649 105.381V107.471H184.638V102.186H185.701C187.144 102.186 187.912 102.725 187.912 103.754C187.912 104.441 187.459 105.051 186.827 105.233L186.753 105.26L188.477 107.471ZM168.071 95.2575V78.0915C168.046 77.1421 167.271 76.4139 166.305 76.4139C165.348 76.4139 164.556 77.1712 164.549 78.1181V95.2575H168.071ZM168.071 109.234V99.875H164.549V109.234H154.189V75.2971C154.189 73.4448 155.701 71.9542 157.558 71.9542H175.06C176.922 71.9542 178.435 73.4448 178.435 75.2971V109.234L168.071 109.234Z" fill="#464646"/>
</g>
<defs>
<clipPath id="clip0_138_255">
<rect width="157" height="83" fill="white" transform="translate(57 29)"/>
</clipPath>
</defs>
</svg>
