<svg width="280" height="280" viewBox="0 0 280 280" fill="none" xmlns="http://www.w3.org/2000/svg">
<path d="M164.587 192.916H148.89C148.461 192.913 148.042 192.79 147.681 192.56C147.32 192.33 147.03 192.003 146.847 191.616L135.625 167.646C134.192 164.619 131.933 162.061 129.107 160.265C126.281 158.47 123.004 157.511 119.656 157.5H70.1311C66.7807 157.511 63.5019 158.47 60.6742 160.267C57.8466 162.064 55.5858 164.626 54.1536 167.654L42.9448 191.603C42.7616 191.994 42.4711 192.325 42.107 192.558C41.743 192.79 41.3204 192.914 40.8886 192.916H35.1573C30.4768 192.919 25.9889 194.779 22.6785 198.088C19.3681 201.397 17.5056 205.884 17.4998 210.564V234.889C17.5021 237.81 18.6629 240.61 20.7274 242.675C22.7919 244.74 25.5915 245.902 28.5117 245.906H37.8873C38.8868 250.6 41.4678 254.81 45.1987 257.83C48.9295 260.85 53.5841 262.498 58.3842 262.498C63.1843 262.498 67.8389 260.85 71.5697 257.83C75.3006 254.81 77.8815 250.6 78.8811 245.906H120.864C121.905 250.565 124.502 254.73 128.227 257.715C131.953 260.7 136.584 262.327 141.358 262.327C146.132 262.327 150.764 260.7 154.489 257.715C158.215 254.73 160.812 250.565 161.853 245.906H171.229C174.149 245.902 176.948 244.74 179.013 242.675C181.077 240.61 182.238 237.81 182.24 234.889V210.564C182.235 205.885 180.373 201.4 177.065 198.091C173.756 194.783 169.266 192.921 164.587 192.916ZM58.3886 253.75C55.1478 253.75 52.0397 252.463 49.7482 250.171C47.4566 247.879 46.1692 244.771 46.1692 241.531C46.1692 238.29 47.4566 235.182 49.7482 232.89C52.0397 230.599 55.1478 229.311 58.3886 229.311C61.6293 229.311 64.7374 230.599 67.029 232.89C69.3205 235.182 70.6079 238.29 70.6079 241.531C70.6079 244.771 69.3205 247.879 67.029 250.171C64.7374 252.463 61.6293 253.75 58.3886 253.75ZM141.365 253.75C138.124 253.75 135.016 252.463 132.724 250.171C130.433 247.879 129.145 244.771 129.145 241.531C129.145 238.29 130.433 235.182 132.724 232.89C135.016 230.599 138.124 229.311 141.365 229.311C144.606 229.311 147.714 230.599 150.005 232.89C152.297 235.182 153.584 238.29 153.584 241.531C153.584 244.771 152.297 247.879 150.005 250.171C147.714 252.463 144.606 253.75 141.365 253.75ZM173.495 234.894C173.486 235.491 173.245 236.061 172.822 236.483C172.4 236.905 171.83 237.147 171.233 237.156H161.857C160.818 232.494 158.221 228.327 154.495 225.34C150.769 222.353 146.136 220.725 141.36 220.725C136.585 220.725 131.952 222.353 128.226 225.34C124.499 228.327 121.903 232.494 120.864 237.156H78.8811C77.8401 232.497 75.2428 228.331 71.5173 225.346C67.7917 222.361 63.1603 220.735 58.3864 220.735C53.6125 220.735 48.9811 222.361 45.2555 225.346C41.53 228.331 38.9326 232.497 37.8917 237.156H28.5117C27.9135 237.148 27.3422 236.906 26.9196 236.483C26.497 236.059 26.2566 235.488 26.2498 234.889V210.564C26.2521 208.204 27.191 205.941 28.8603 204.273C30.5296 202.605 32.7928 201.667 35.1529 201.666H40.8929C42.9845 201.658 45.0311 201.058 46.7957 199.936C48.5603 198.813 49.9708 197.213 50.8636 195.322L62.0767 171.373C62.7991 169.846 63.9387 168.555 65.364 167.648C66.7892 166.742 68.4419 166.257 70.1311 166.25H119.656C121.344 166.257 122.995 166.74 124.419 167.645C125.844 168.55 126.983 169.839 127.706 171.364L137.795 192.916H94.2679C93.8379 192.913 93.4173 192.789 93.0549 192.558C92.6925 192.326 92.4032 191.997 92.2204 191.608L85.8329 177.957C85.3287 176.927 84.4397 176.136 83.3577 175.754C82.2756 175.373 81.087 175.432 80.0479 175.918C79.0088 176.405 78.2025 177.28 77.8026 178.355C77.4026 179.431 77.4412 180.62 77.9098 181.667L84.2973 195.318C85.1892 197.211 86.6 198.812 88.3657 199.935C90.1315 201.058 92.1797 201.656 94.2723 201.661H146.204C147.975 201.495 162.457 201.771 164.592 201.661C166.952 201.664 169.215 202.602 170.883 204.272C172.552 205.941 173.489 208.204 173.49 210.564L173.495 234.894ZM225.562 17.5C215.769 17.5116 206.38 21.407 199.455 28.3317C192.531 35.2564 188.635 44.6451 188.624 54.4381C188.624 75.4031 209.873 100.887 219.012 110.867C219.849 111.768 220.862 112.486 221.989 112.978C223.116 113.469 224.332 113.723 225.562 113.723C226.791 113.723 228.007 113.469 229.134 112.978C230.261 112.486 231.274 111.768 232.111 110.867C241.25 100.887 262.5 75.4031 262.5 54.4381C262.488 44.6451 258.593 35.2564 251.668 28.3317C244.743 21.407 235.355 17.5116 225.562 17.5ZM225.465 104.961C218.877 97.7594 197.374 72.8394 197.374 54.4381C197.374 46.9622 200.343 39.7924 205.63 34.5061C210.916 29.2198 218.086 26.25 225.562 26.25C233.038 26.25 240.207 29.2198 245.494 34.5061C250.78 39.7924 253.75 46.9622 253.75 54.4381C253.75 72.8394 232.247 97.7594 225.465 104.961Z" fill="#91824C"/>
<path d="M225.562 36.9382C220.921 36.9382 216.469 38.782 213.188 42.0639C209.906 45.3458 208.062 49.7969 208.062 54.4382C208.062 59.0795 209.906 63.5307 213.188 66.8126C216.469 70.0945 220.921 71.9382 225.562 71.9382C230.203 71.9382 234.654 70.0945 237.936 66.8126C241.218 63.5307 243.062 59.0795 243.062 54.4382C243.062 49.7969 241.218 45.3458 237.936 42.0639C234.654 38.782 230.203 36.9382 225.562 36.9382ZM225.562 63.1882C223.241 63.1882 221.016 62.2664 219.375 60.6254C217.734 58.9845 216.812 56.7589 216.812 54.4382C216.812 52.1176 217.734 49.892 219.375 48.2511C221.016 46.6101 223.241 45.6882 225.562 45.6882C227.883 45.6882 230.108 46.6101 231.749 48.2511C233.39 49.892 234.312 52.1176 234.312 54.4382C234.312 56.7589 233.39 58.9845 231.749 60.6254C230.108 62.2664 227.883 63.1882 225.562 63.1882ZM175.481 50.0501H153.606C152.446 50.0501 151.333 50.511 150.513 51.3315C149.692 52.152 149.231 53.2648 149.231 54.4251C149.231 55.5854 149.692 56.6982 150.513 57.5187C151.333 58.3392 152.446 58.8001 153.606 58.8001H175.481C176.642 58.8001 177.754 58.3392 178.575 57.5187C179.395 56.6982 179.856 55.5854 179.856 54.4251C179.856 53.2648 179.395 52.152 178.575 51.3315C177.754 50.511 176.642 50.0501 175.481 50.0501ZM167.519 135.625C167.519 136.785 167.98 137.898 168.8 138.719C169.621 139.539 170.733 140 171.894 140H193.769C194.929 140 196.042 139.539 196.862 138.719C197.683 137.898 198.144 136.785 198.144 135.625C198.144 134.465 197.683 133.352 196.862 132.532C196.042 131.711 194.929 131.25 193.769 131.25H171.894C170.733 131.25 169.621 131.711 168.8 132.532C167.98 133.352 167.519 134.465 167.519 135.625ZM37.9313 127.649C33.5563 136.356 56.7044 140.201 62.5188 140C63.6791 139.994 64.7896 139.528 65.6059 138.703C66.4223 137.879 66.8777 136.764 66.8719 135.603C66.8661 134.443 66.3996 133.332 65.575 132.516C64.7504 131.7 63.6353 131.244 62.475 131.25C55.9465 131.248 49.54 129.481 43.9338 126.136C42.9366 125.542 41.7448 125.368 40.6197 125.652C39.4945 125.936 38.5277 126.654 37.9313 127.649ZM234.404 144.944C235.414 145.514 236.608 145.66 237.726 145.351C238.844 145.042 239.793 144.302 240.367 143.294C244.545 134.575 221.401 131.123 215.648 131.25C215.074 131.25 214.505 131.363 213.974 131.582C213.443 131.802 212.96 132.124 212.554 132.53C212.147 132.936 211.825 133.418 211.605 133.949C211.385 134.48 211.271 135.048 211.271 135.623C211.271 136.197 211.384 136.766 211.603 137.297C211.823 137.828 212.145 138.311 212.551 138.717C212.957 139.124 213.439 139.446 213.97 139.666C214.5 139.886 215.069 140 215.644 140C222.218 140.008 228.679 141.71 234.404 144.944ZM255.238 194.198C254.73 193.926 254.174 193.758 253.602 193.702C253.029 193.647 252.451 193.705 251.901 193.873C251.351 194.041 250.84 194.317 250.397 194.683C249.953 195.05 249.587 195.5 249.318 196.009C247.534 199.369 245.254 202.441 242.554 205.122C239.894 208.727 231.722 210.726 234.837 216.322C239.177 221.861 245.197 214.235 248.741 211.308C251.886 207.476 261.857 198.463 255.238 194.198ZM249.795 152.486C248.802 153.086 248.088 154.054 247.809 155.18C247.53 156.305 247.709 157.495 248.308 158.489C251.69 164.123 253.558 170.535 253.732 177.104C253.763 178.265 254.253 179.366 255.094 180.165C255.936 180.964 257.061 181.396 258.221 181.366C259.382 181.336 260.482 180.846 261.282 180.004C262.081 179.162 262.513 178.037 262.482 176.877C262.469 171.154 258.401 148.068 249.795 152.486ZM42.9363 54.5082C37.7825 56.6957 18.3706 70.5295 26.1625 76.322C26.6419 76.639 27.1791 76.8584 27.7433 76.9678C28.3075 77.0771 28.8878 77.0742 29.4509 76.9593C30.014 76.8443 30.549 76.6195 31.0252 76.2977C31.5014 75.9759 31.9095 75.5634 32.2263 75.0839C35.8339 69.6222 40.8491 65.2358 46.7425 62.3876C47.7874 61.8829 48.589 60.9837 48.9709 59.888C49.3528 58.7922 49.2838 57.5897 48.7791 56.5448C48.2743 55.4999 47.3752 54.6984 46.2795 54.3164C45.1837 53.9345 43.9811 54.0035 42.9363 54.5082ZM17.5438 93.0345C17.08 98.757 19.915 122.141 28.8181 118.134C29.3239 117.861 29.7709 117.49 30.1335 117.044C30.4961 116.598 30.7672 116.085 30.9314 115.534C31.0955 114.983 31.1495 114.405 31.0902 113.833C31.0308 113.261 30.8594 112.707 30.5856 112.201C27.7414 106.929 26.2516 101.033 26.25 95.0426C27.6456 88.3926 18.55 86.1964 17.5438 93.0345ZM217.696 216.252C217.009 216.291 216.3 216.291 215.596 216.3H196.061C194.901 216.3 193.788 216.761 192.968 217.582C192.147 218.402 191.686 219.515 191.686 220.675C191.686 221.835 192.147 222.948 192.968 223.769C193.788 224.589 194.901 225.05 196.061 225.05C197.724 225.033 217.105 225.116 218.177 224.984C219.309 224.887 220.359 224.352 221.104 223.493C221.849 222.635 222.231 221.52 222.169 220.385C222.106 219.25 221.604 218.184 220.769 217.412C219.934 216.641 218.832 216.225 217.696 216.252ZM80.0188 135.625C80.0188 136.785 80.4797 137.898 81.3002 138.719C82.1206 139.539 83.2334 140 84.3938 140H106.269C107.429 140 108.542 139.539 109.362 138.719C110.183 137.898 110.644 136.785 110.644 135.625C110.644 134.465 110.183 133.352 109.362 132.532C108.542 131.711 107.429 131.25 106.269 131.25H84.3938C83.2334 131.25 82.1206 131.711 81.3002 132.532C80.4797 133.352 80.0188 134.465 80.0188 135.625ZM131.731 50.0501H109.856C108.696 50.0501 107.583 50.511 106.763 51.3315C105.942 52.152 105.481 53.2648 105.481 54.4251C105.481 55.5854 105.942 56.6982 106.763 57.5187C107.583 58.3392 108.696 58.8001 109.856 58.8001H131.731C132.892 58.8001 134.004 58.3392 134.825 57.5187C135.645 56.6982 136.106 55.5854 136.106 54.4251C136.106 53.2648 135.645 52.152 134.825 51.3315C134.004 50.511 132.892 50.0501 131.731 50.0501ZM123.769 135.625C123.769 136.785 124.23 137.898 125.05 138.719C125.871 139.539 126.983 140 128.144 140H150.019C151.179 140 152.292 139.539 153.112 138.719C153.933 137.898 154.394 136.785 154.394 135.625C154.394 134.465 153.933 133.352 153.112 132.532C152.292 131.711 151.179 131.25 150.019 131.25H128.144C126.983 131.25 125.871 131.711 125.05 132.532C124.23 133.352 123.769 134.465 123.769 135.625ZM87.9813 50.0501H66.1063C64.9459 50.0501 63.8331 50.511 63.0127 51.3315C62.1922 52.152 61.7313 53.2648 61.7313 54.4251C61.7313 55.5854 62.1922 56.6982 63.0127 57.5187C63.8331 58.3392 64.9459 58.8001 66.1063 58.8001H87.9813C89.1416 58.8001 90.2544 58.3392 91.0749 57.5187C91.8953 56.6982 92.3563 55.5854 92.3563 54.4251C92.3563 53.2648 91.8953 52.152 91.0749 51.3315C90.2544 50.511 89.1416 50.0501 87.9813 50.0501Z" fill="#91824C"/>
</svg>
