<svg width="270" height="140" viewBox="0 0 270 140" fill="none" xmlns="http://www.w3.org/2000/svg">
<path fill-rule="evenodd" clip-rule="evenodd" d="M160.527 34.4402V30H142.694V54.3793H160.527V50.358H147.656V43.7395H158.928V39.3831H147.656V34.4402H160.527ZM155.565 56.8926V66.2757H145.806V56.8926H140.762V81.1893H145.806V70.2971H155.565V81.1893H160.527V56.8926H155.565ZM160.527 88.0567V83.7026H142.694V108.415H160.527V103.977H147.656V97.441H158.928V93.4208H147.656V88.0567H160.527ZM139.836 30H134.873V39.3831H125.117V30H120.155V54.3793H125.117V43.4882H134.873V54.3793H139.836V30ZM98.7914 30V34.4402H106.361V54.3793H111.323V34.4402H118.893V30H98.7914ZM83.1474 56.2224C75.3255 56.2224 71.2043 60.6626 71.2043 69.0404C71.2043 77.837 75.3255 82.1935 83.1474 82.1935C90.9694 82.1935 95.0065 77.837 95.0065 69.0404C95.0065 60.6626 90.9694 56.2224 83.1474 56.2224ZM76.5871 69.0404C76.5871 63.4273 78.7739 60.6626 83.1474 60.6626C87.8574 60.6626 90.0442 63.4273 90.0442 69.0404C90.0442 74.9898 87.8574 77.837 83.1474 77.837C78.7739 77.837 76.5871 74.9898 76.5871 69.0404ZM64.0552 56.8926V74.067L54.2987 56.8926H49V81.1893H53.71V64.0975L63.7187 81.1893H69.0175V56.8926H64.0552ZM87.1846 93.7548V88.0567H99.7165V83.7026H82.2223V108.415H87.1846V98.1112H98.2026V93.7548H87.1846ZM138.912 61.2491V56.8926H118.893V61.2491H126.378V81.1893H131.425V61.2491H138.912ZM107.875 71.89C109.473 71.89 110.735 72.1402 111.323 72.8104L112.248 81.1893H117.884V80.6029C117.295 80.2666 116.958 78.7598 116.958 75.9102C116.958 72.4764 115.697 70.6322 113.847 69.7106C116.37 68.7053 117.631 66.8622 117.631 63.7624C117.631 59.406 115.108 56.8926 109.809 56.8926H97.5297V81.1893H102.576V71.89H107.875ZM102.576 67.7837V61.2491H108.8C111.323 61.2491 112.585 62.1706 112.585 64.3488C112.585 66.5271 111.323 67.7837 108.548 67.7837H102.576ZM111.323 83.7026H105.352L96.6046 108.415H101.903L103.838 103.054H112.921L114.435 108.415H119.818L111.323 83.7026ZM108.211 89.3134L111.323 99.034H105.099L108.211 89.3134ZM135.8 91.8267H140.762C140.508 89.6497 139.836 87.8066 138.32 86.2136C136.135 84.3705 133.612 83.1139 130.163 83.1139C126.715 83.1139 124.192 84.3705 122.005 86.5499C120.155 88.727 118.893 91.8267 118.893 95.933C118.893 104.646 122.594 109 129.827 109C136.135 109 139.582 105.9 140.762 99.9532H135.8C135.127 102.8 132.939 104.31 130.163 104.31C126.042 104.31 124.192 101.546 124.192 96.1832C124.192 90.3199 126.042 87.4703 130.163 87.4703C132.939 87.4703 134.538 89.0632 135.8 91.8267ZM73.4751 108.081C74.3162 108.081 74.9891 107.744 75.4949 107.327C75.9154 106.824 76.2507 106.154 76.2507 105.233C76.2507 104.227 75.9142 103.557 75.4949 103.138C74.9902 102.72 74.3174 102.468 73.4751 102.468H73.391C72.3818 102.468 71.7089 102.72 71.2884 103.138C70.869 103.556 70.6155 104.227 70.6155 105.233V105.315C70.6155 106.154 70.8678 106.824 71.2884 107.327C71.7089 107.744 72.3829 108.081 73.391 108.081H73.4751ZM73.391 108.751C72.2135 108.751 71.3725 108.333 70.7837 107.744C70.195 107.158 69.9426 106.321 69.9426 105.315V105.233C69.9426 104.058 70.195 103.222 70.7837 102.636C71.3725 102.05 72.2135 101.797 73.391 101.797H73.4751C74.4844 101.797 75.3255 102.05 75.9142 102.636C76.503 103.223 76.9235 104.059 76.9235 105.233C76.9235 106.323 76.503 107.158 75.9142 107.744C75.5952 108.065 75.2152 108.319 74.7964 108.492C74.3776 108.665 73.9284 108.753 73.4751 108.751H73.391ZM73.7275 104.897H73.8116C74.148 104.897 74.3162 104.729 74.3162 104.311V104.227C74.3162 104.227 74.2321 104.227 74.2321 104.143C74.148 104.059 73.9798 104.059 73.7275 104.059H72.8023V104.898L73.7275 104.897ZM74.3162 105.484L74.9891 106.323C75.0732 106.489 74.9891 106.657 74.905 106.74C74.7367 106.909 74.4844 106.824 74.4003 106.74L73.5592 105.567H72.8023V106.488C72.8023 106.657 72.6341 106.824 72.4659 106.824C72.2976 106.824 72.1294 106.655 72.1294 106.488V103.724C72.1294 103.556 72.2976 103.39 72.4659 103.39H73.8116C74.148 103.39 74.4844 103.472 74.6526 103.641C74.7367 103.724 74.8209 103.724 74.8209 103.809C74.9891 103.978 74.9891 104.143 74.9891 104.312C74.9891 104.981 74.8209 105.315 74.3162 105.484ZM163.974 30C179.619 30 193.159 35.6969 204.093 46.588C215.364 57.8142 221 71.2186 221 86.8839V108.415H198.123V86.2136C198.123 77.5031 195.011 69.9619 188.703 63.7624C187.188 62.1706 185.591 60.914 183.741 59.6573C178.694 56.2224 172.723 54.7144 166.499 54.7144H163.975V30H163.974ZM195.934 108.415H178.103V91.2403C178.103 88.393 177.179 86.2136 175.245 84.3705C173.394 82.446 170.871 81.5233 168.348 81.5233H163.974V56.8926H166.497C173.057 56.8926 178.692 58.7357 183.739 62.5057C185.001 63.0922 186.263 64.3488 187.187 65.2704C193.159 71.2198 195.934 78.0895 195.934 86.2148V108.415ZM175.917 108.415H163.973V83.7026H168.348C170.282 83.7026 172.133 84.3705 173.73 85.8797C174.991 87.1364 175.917 89.0632 175.917 91.2403V108.415Z" fill="#464646"/>
</svg>
