<svg width="36" height="34" viewBox="0 0 36 34" fill="none" xmlns="http://www.w3.org/2000/svg">
<path d="M4.90898 6.47654C4.00818 6.47654 3.27184 5.74802 3.27184 4.8568C3.27184 3.96557 4.00818 3.23706 4.90898 3.23706H10.4242L15.8904 0H4.90898C2.4864 0 0.473716 1.74845 0.0809981 4.04814C0.0490898 4.17684 0 4.30798 0 4.45368V29.1432C0 31.8144 2.20904 34 4.90898 34H32.7257C34.5249 34 35.9975 32.543 35.9975 30.7629V27.5259H31.9084C27.8511 27.5259 24.5449 24.2548 24.5449 20.2407C24.5449 16.2266 27.8511 12.9555 31.9084 12.9555H36V9.71845C36 7.93843 34.5273 6.48139 32.7282 6.48139H4.90898V6.47654ZM31.091 3.23948C31.091 1.60517 29.8638 0.245268 28.261 0.0339974L31.091 4.85922V3.23948Z" fill="#FC573B"/>
</svg>
