<svg width="218" height="100" viewBox="0 0 218 100" fill="none" xmlns="http://www.w3.org/2000/svg">
<path fill-rule="evenodd" clip-rule="evenodd" d="M141.354 5.62053V0H118.752V30.8599H141.354V25.7696H125.041V17.3918H139.327V11.8773H125.041V5.62053H141.354ZM135.065 34.0413V45.9186H122.696V34.0413H116.303V64.7966H122.696V51.0089H135.065V64.7966H141.354V34.0413H135.065ZM141.354 73.4896V67.978H118.752V99.2592H141.354V93.6416H125.041V85.3684H139.327V80.2796H125.041V73.4896H141.354ZM115.129 0H108.839V11.8773H96.4737V0H90.1842V30.8599H96.4737V17.0737H108.839V30.8599H115.129V0ZM63.1076 0V5.62053H72.7017V30.8599H78.9911V5.62053H88.5852V0H63.1076ZM43.2799 33.1929C33.366 33.1929 28.1426 38.8134 28.1426 49.4182C28.1426 60.5532 33.366 66.0677 43.2799 66.0677C53.1938 66.0677 58.3106 60.5532 58.3106 49.4182C58.3106 38.8134 53.1938 33.1929 43.2799 33.1929ZM34.965 49.4182C34.965 42.313 37.7367 38.8134 43.2799 38.8134C49.2495 38.8134 52.0212 42.313 52.0212 49.4182C52.0212 56.9491 49.2495 60.5532 43.2799 60.5532C37.7367 60.5532 34.965 56.9491 34.965 49.4182ZM19.0815 34.0413V55.7811L6.71585 34.0413H0V64.7966H5.96964V43.1614L18.6551 64.7966H25.371V34.0413H19.0815ZM48.3967 80.7023V73.4896H64.2803V67.978H42.1073V99.2592H48.3967V86.2168H62.3614V80.7023H48.3967ZM113.958 39.5558V34.0413H88.5852V39.5558H98.0727V64.7966H104.469V39.5558H113.958ZM74.6205 53.0253C76.6459 53.0253 78.2449 53.342 78.9911 54.1904L80.1638 64.7966H87.306V64.0543C86.5598 63.6286 86.1334 61.7212 86.1334 58.1141C86.1334 53.7676 84.5344 51.4331 82.1892 50.2666C85.3872 48.994 86.9862 46.661 86.9862 42.7372C86.9862 37.2227 83.7882 34.0413 77.0723 34.0413H61.5086V64.7966H67.9047V53.0253H74.6205ZM67.9047 47.8275V39.5558H75.7931C78.9912 39.5558 80.5902 40.7223 80.5902 43.4795C80.5902 46.2368 78.9911 47.8275 75.4733 47.8275H67.9047ZM78.9911 67.978H71.4225L60.336 99.2592H67.0519L69.5037 92.4736H81.0166L82.9354 99.2592H89.7578L78.9911 67.978ZM75.0469 75.0803L78.9911 87.3848H71.1027L75.0469 75.0803ZM110.013 78.2617H116.303C115.982 75.5059 115.129 73.1729 113.209 71.1565C110.438 68.8235 107.24 67.2328 102.87 67.2328C98.4991 67.2328 95.3011 68.8235 92.5294 71.5822C90.1842 74.3379 88.5852 78.2617 88.5852 83.4595C88.5852 94.4885 93.2757 100 102.443 100C110.438 100 114.808 96.0762 116.303 88.5483H110.013C109.161 92.1525 106.388 94.0628 102.87 94.0628C97.6463 94.0628 95.3011 90.5647 95.3011 83.7762C95.3011 76.3543 97.6463 72.7472 102.87 72.7472C106.388 72.7472 108.414 74.7636 110.013 78.2617ZM31.0208 98.8364C32.0868 98.8364 32.9396 98.4108 33.5807 97.882C34.1137 97.2457 34.5386 96.3973 34.5386 95.2323C34.5386 93.9582 34.1122 93.1099 33.5807 92.5796C32.9411 92.0509 32.0883 91.7312 31.0208 91.7312H30.9142C29.635 91.7312 28.7822 92.0509 28.2492 92.5796C27.7177 93.1084 27.3964 93.9582 27.3964 95.2323V95.3354C27.3964 96.3973 27.7162 97.2457 28.2492 97.882C28.7822 98.4108 29.6365 98.8364 30.9142 98.8364H31.0208ZM30.9142 99.6848C29.4218 99.6848 28.3558 99.156 27.6096 98.4108C26.8634 97.6684 26.5436 96.6094 26.5436 95.3354V95.2323C26.5436 93.7447 26.8634 92.6857 27.6096 91.9448C28.3558 91.2025 29.4218 90.8829 30.9142 90.8829H31.0208C32.3 90.8829 33.366 91.2025 34.1122 91.9448C34.8584 92.6871 35.3914 93.7461 35.3914 95.2323C35.3914 96.6109 34.8584 97.6684 34.1122 98.4108C33.7079 98.8168 33.2262 99.1385 32.6954 99.3573C32.1646 99.576 31.5953 99.6874 31.0208 99.6848H30.9142ZM31.3406 94.8066H31.4472C31.8736 94.8066 32.0868 94.593 32.0868 94.0643V93.9582C32.0868 93.9582 31.9802 93.9582 31.9802 93.8522C31.8736 93.7461 31.6604 93.7461 31.3406 93.7461H30.168V94.8081L31.3406 94.8066ZM32.0868 95.549L32.9396 96.6109C33.0462 96.8215 32.9396 97.0336 32.833 97.1397C32.6198 97.3532 32.3 97.2457 32.1934 97.1397L31.1274 95.655H30.168V96.8201C30.168 97.0336 29.9548 97.2457 29.7416 97.2457C29.5284 97.2457 29.3152 97.0321 29.3152 96.8201V93.322C29.3152 93.1084 29.5284 92.8992 29.7416 92.8992H31.4472C31.8736 92.8992 32.3 93.0023 32.5132 93.2159C32.6198 93.322 32.7264 93.3219 32.7264 93.4295C32.9396 93.643 32.9396 93.8522 32.9396 94.0658C32.9396 94.9127 32.7264 95.3354 32.0868 95.549ZM145.723 0C165.552 0 182.714 7.21124 196.572 20.9974C210.856 35.2078 218 52.1755 218 72.0049V99.2592H189.005V71.1565C189.005 60.1305 185.06 50.5847 177.065 42.7372C175.145 40.7223 173.121 39.1316 170.776 37.5409C164.38 33.1929 156.811 31.2841 148.923 31.2841H145.725V0H145.723ZM186.23 99.2592H163.631V77.5194C163.631 73.9152 162.46 71.1565 160.008 68.8235C157.663 66.3873 154.464 65.2193 151.266 65.2193H145.723V34.0413H148.921C157.235 34.0413 164.377 36.3743 170.774 41.1465C172.373 41.8888 173.972 43.4795 175.144 44.6461C182.714 52.1769 186.23 60.8728 186.23 71.158V99.2592ZM160.861 99.2592H145.722V67.978H151.266C153.718 67.978 156.063 68.8235 158.087 70.7338C159.686 72.3245 160.861 74.7636 160.861 77.5194V99.2592Z" fill="#EFEFEF"/>
</svg>
