<svg width="28" height="23" viewBox="0 0 28 23" fill="none" xmlns="http://www.w3.org/2000/svg">
<path d="M1.55633 23C1.14357 23 0.74771 22.8328 0.45584 22.5352C0.163971 22.2376 0 21.8339 0 21.4131V4.75846C0 2.13417 2.093 0 4.66667 0H23.3333C25.907 0 28 2.13417 28 4.75846V21.4131C28 21.8339 27.836 22.2376 27.5442 22.5352C27.2523 22.8328 26.8564 23 26.4437 23C26.0309 23 25.635 22.8328 25.3432 22.5352C25.0513 22.2376 24.8873 21.8339 24.8873 21.4131V4.75846C24.8873 4.55006 24.8471 4.3437 24.7689 4.15116C24.6906 3.95862 24.576 3.78368 24.4315 3.63632C24.287 3.48895 24.1154 3.37206 23.9266 3.29231C23.7378 3.21256 23.5354 3.17151 23.331 3.17151H4.66433C4.25157 3.17151 3.85571 3.33871 3.56384 3.63632C3.27197 3.93393 3.108 4.33757 3.108 4.75846V21.4131C3.10861 21.6212 3.06893 21.8275 2.99123 22.02C2.91352 22.2125 2.79933 22.3875 2.65518 22.5349C2.51103 22.6823 2.33977 22.7993 2.15121 22.8791C1.96265 22.9589 1.76049 23 1.55633 23Z" fill="#BE63F9"/>
</svg>
