<svg width="38" height="28" viewBox="0 0 38 28" fill="none" xmlns="http://www.w3.org/2000/svg">
<path d="M38 6.2427C38 4.51072 37.0524 2.92051 35.5252 2.0935L31.6682 0V3.5892L34.01 4.86042C34.2595 4.99589 34.4678 5.19575 34.6128 5.439C34.7578 5.68225 34.8343 5.95988 34.8341 6.2427V8.21097L19.9286 15.9565C19.6422 16.1017 19.3253 16.1776 19.0038 16.178C18.6824 16.1784 18.3653 16.1033 18.0785 15.9588L3.16825 8.21097V6.2427C3.16825 5.66616 3.48413 5.13688 3.99475 4.86042L6.3365 3.5892V0L2.4795 2.0935C1.72919 2.49915 1.10282 3.09872 0.666426 3.82898C0.230034 4.55924 -0.000200437 5.39313 1.30931e-07 6.2427V23.2743C1.30931e-07 25.8805 2.13037 28 4.75 28H33.25C35.8696 28 38 25.8805 38 23.2743V6.2427Z" fill="#BE63F9"/>
</svg>
