<svg width="25" height="25" viewBox="0 0 25 25" fill="none" xmlns="http://www.w3.org/2000/svg">
<path d="M12.5 0C5.6075 0 0 5.6075 0 12.5C0 19.3925 5.6075 25 12.5 25C19.3925 25 25 19.3925 25 12.5C25 5.6075 19.3925 0 12.5 0ZM11.8675 11.25H13.135C14.0187 11.2516 14.8697 11.5838 15.5207 12.1814C16.1718 12.7789 16.5755 13.5985 16.6527 14.4788C16.7298 15.3591 16.4746 16.2363 15.9375 16.938C15.4003 17.6396 14.6199 18.1148 13.75 18.27V19.5825C13.75 19.914 13.6183 20.232 13.3839 20.4664C13.1495 20.7008 12.8315 20.8325 12.5 20.8325C12.1685 20.8325 11.8505 20.7008 11.6161 20.4664C11.3817 20.232 11.25 19.914 11.25 19.5825V18.3325H9.5825C9.25098 18.3325 8.93304 18.2008 8.69862 17.9664C8.4642 17.732 8.3325 17.414 8.3325 17.0825C8.3325 16.751 8.4642 16.433 8.69862 16.1986C8.93304 15.9642 9.25098 15.8325 9.5825 15.8325H13.1325C13.4087 15.8325 13.6735 15.7228 13.8688 15.5275C14.064 15.3323 14.1738 15.0674 14.1738 14.7913C14.1738 14.5151 14.064 14.2502 13.8688 14.055C13.6735 13.8597 13.4087 13.75 13.1325 13.75H11.865C10.9813 13.7484 10.1303 13.4162 9.47926 12.8186C8.82825 12.2211 8.42445 11.4015 8.34733 10.5212C8.27022 9.64094 8.52535 8.76366 9.06254 8.06202C9.59973 7.36039 10.3801 6.88521 11.25 6.73V5.4175C11.25 5.08598 11.3817 4.76804 11.6161 4.53362C11.8505 4.2992 12.1685 4.1675 12.5 4.1675C12.8315 4.1675 13.1495 4.2992 13.3839 4.53362C13.6183 4.76804 13.75 5.08598 13.75 5.4175V6.6675H15.4175C15.749 6.6675 16.067 6.7992 16.3014 7.03362C16.5358 7.26804 16.6675 7.58598 16.6675 7.9175C16.6675 8.24902 16.5358 8.56696 16.3014 8.80138C16.067 9.0358 15.749 9.1675 15.4175 9.1675H11.8675C11.5939 9.16816 11.3316 9.27715 11.1381 9.47064C10.9447 9.66413 10.8357 9.92637 10.835 10.2C10.8333 10.3369 10.8588 10.4727 10.9099 10.5997C10.961 10.7267 11.0367 10.8423 11.1327 10.9399C11.2286 11.0375 11.343 11.1152 11.4691 11.1684C11.5952 11.2216 11.7306 11.2494 11.8675 11.25Z" fill="#8CE1EB"/>
</svg>
