<svg width="8" height="16" viewBox="0 0 8 16" fill="none" xmlns="http://www.w3.org/2000/svg">
<path d="M8 10.1914C8 8.32163 6.4787 6.79988 4.60948 6.79988H3.39292C3.26154 6.79925 3.13158 6.77263 3.01053 6.72154C2.88948 6.67045 2.77974 6.5959 2.68762 6.5022C2.5955 6.40849 2.52283 6.29747 2.4738 6.17555C2.42476 6.05362 2.40033 5.92319 2.40192 5.79178C2.40192 5.24452 2.84823 4.80048 3.39292 4.80048H6.80024C7.11843 4.80048 7.4236 4.67404 7.6486 4.44897C7.8736 4.22391 8 3.91865 8 3.60036C8 3.28207 7.8736 2.97681 7.6486 2.75175C7.4236 2.52668 7.11843 2.40024 6.80024 2.40024H5.19976V1.20012C5.19976 0.881828 5.07336 0.576572 4.84836 0.351506C4.62336 0.12644 4.3182 0 4 0C3.6818 0 3.37664 0.12644 3.15164 0.351506C2.92664 0.576572 2.80024 0.881828 2.80024 1.20012V2.46025C1.9702 2.61488 1.22746 3.07311 0.71674 3.74564C0.206019 4.41816 -0.0360871 5.25681 0.0375978 6.09815C0.111283 6.93948 0.49548 7.72324 1.11532 8.29669C1.73517 8.87014 2.54625 9.19221 3.39052 9.20012H4.60708C5.15417 9.20012 5.59808 9.64656 5.59808 10.2082C5.59745 10.4709 5.49283 10.7227 5.30712 10.9085C5.12141 11.0942 4.86971 11.1989 4.60708 11.1995H1.19976C0.881564 11.1995 0.576399 11.326 0.351401 11.551C0.126402 11.7761 0 12.0813 0 12.3996C0 12.7179 0.126402 13.0232 0.351401 13.2483C0.576399 13.4733 0.881564 13.5998 1.19976 13.5998H2.80024V14.7999C2.80024 15.1182 2.92664 15.4234 3.15164 15.6485C3.37664 15.8736 3.6818 16 4 16C4.3182 16 4.62336 15.8736 4.84836 15.6485C5.07336 15.4234 5.19976 15.1182 5.19976 14.7999V13.5398C5.98527 13.3994 6.69634 12.987 7.20834 12.3748C7.72034 11.7625 8.0006 10.9896 8 10.1914Z" fill="#D9A4FC"/>
</svg>
