<svg width="12" height="10" viewBox="0 0 12 10" fill="none" xmlns="http://www.w3.org/2000/svg">
<path d="M10.8 0H4.8C2.1528 0 0 2.2425 0 5C0 7.7575 2.1528 10 4.8 10H10.8C11.1183 10 11.4235 9.86831 11.6485 9.63388C11.8736 9.39946 12 9.08152 12 8.75V1.25C12 0.918479 11.8736 0.600538 11.6485 0.366118C11.4235 0.131697 11.1183 0 10.8 0ZM4.8 6.665C4.58962 6.66484 4.38134 6.62151 4.18703 6.53749C3.99273 6.45348 3.81621 6.33042 3.66757 6.17535C3.51892 6.02028 3.40105 5.83622 3.32069 5.6337C3.24032 5.43117 3.19904 5.21415 3.1992 4.995C3.19936 4.77586 3.24095 4.55889 3.32161 4.35649C3.40226 4.15409 3.52039 3.97023 3.66926 3.81538C3.81814 3.66054 3.99483 3.53776 4.18925 3.45405C4.38368 3.37034 4.59202 3.32733 4.8024 3.3275C5.22728 3.32783 5.63462 3.50396 5.93483 3.81715C6.23504 4.13033 6.40352 4.55492 6.4032 4.9975C6.40288 5.44008 6.23379 5.8644 5.93313 6.17712C5.63248 6.48984 5.22488 6.66533 4.8 6.665Z" fill="#FD907E"/>
</svg>
