<svg width="46" height="31" viewBox="0 0 46 31" fill="none" xmlns="http://www.w3.org/2000/svg">
<path d="M40.25 0H5.75C2.57887 0 0 2.60682 0 5.81232V25.1877C0 28.3932 2.57887 31 5.75 31H40.25C43.4211 31 46 28.3932 46 25.1877V5.81232C46 2.60682 43.4211 0 40.25 0ZM15.9965 27.1232L3.83525 17.4631V13.534L15.9965 3.87391H30.0064L42.1676 13.534V17.4631L30.0035 27.1232H15.9965ZM42.1676 5.81232V8.60804L36.2077 3.87391H40.25C41.308 3.87391 42.1676 4.74285 42.1676 5.81232ZM5.75 3.87391H9.79225L3.83238 8.60804V5.81232C3.83238 4.74285 4.692 3.87391 5.75 3.87391ZM3.83238 25.1848V22.3891L9.79225 27.1232H5.75C5.24141 27.1232 4.75366 26.919 4.39403 26.5554C4.03441 26.1919 3.83238 25.6989 3.83238 25.1848ZM40.25 27.1232H36.2077L42.1676 22.3891V25.1848C42.1676 25.6989 41.9656 26.1919 41.606 26.5554C41.2463 26.919 40.7586 27.1232 40.25 27.1232Z" fill="#FFD200"/>
</svg>
