<svg width="40" height="21" viewBox="0 0 40 21" fill="none" xmlns="http://www.w3.org/2000/svg">
<path d="M40 6.32388V6.23034C40 6.18603 39.9775 6.14911 39.975 6.10726C39.855 3.63826 37.6425 1.50651 33.655 0C31.2975 5.11769 26.07 8.69195 20 8.69195C13.93 8.69195 8.705 5.11769 6.345 0C2.2425 1.54835 0 3.75642 0 6.31649V12.7339C0 12.8201 0.0375011 12.8964 0.0500011 12.9801C0.577501 18.243 10.3325 21 20 21C29.59 21 39.265 18.2873 39.935 13.1081C39.9575 13.0022 40 12.9062 40 12.7955V12.5345V6.32388ZM36.6675 12.5444C36.66 14.6564 30.1675 17.7187 20 17.7187C9.825 17.7187 3.3325 14.6515 3.3325 12.5394V11.1905C7.1075 13.5536 13.57 14.777 20 14.777C26.4275 14.777 32.8925 13.5536 36.6675 11.1929V12.5444Z" fill="#26C6DA"/>
</svg>
